<?xml version="1.0" encoding="iso-8859-1"?>
<!-- Generator: Adobe Illustrator 19.0.0, SVG Export Plug-In . SVG Version: 6.00 Build 0)  -->
<svg version="1.1" id="Capa_1" xmlns="http://www.w3.org/2000/svg" xmlns:xlink="http://www.w3.org/1999/xlink" x="0px" y="0px"
	 viewBox="0 0 512 512" style="enable-background:new 0 0 512 512;" xml:space="preserve">
<linearGradient id="SVGID_1_" gradientUnits="userSpaceOnUse" x1="256.0125" y1="507.9813" x2="256.0125" y2="7.9823" gradientTransform="matrix(1 0 0 -1 -0.002 513.9713)">
	<stop  offset="0" style="stop-color:#2AF598"/>
	<stop  offset="1" style="stop-color:#009EFD"/>
</linearGradient>
<path style="fill:url(#SVGID_1_);" d="M422.004,177.813l-12.577-10.173c-0.566-0.458-14.016-11.39-27.51-26.899
	c-19.847-22.812-29.91-44.057-29.91-63.144v-1.533c0-38.627,31.401-70.053,69.997-70.053s69.997,31.426,69.997,70.053v1.532
	c0,19.088-10.063,40.332-29.91,63.144c-13.494,15.509-26.944,26.441-27.51,26.899L422.004,177.813z M422.004,46.008
	c-16.541,0-29.999,13.482-29.999,30.055v1.533c0,12.925,15.184,32.795,30.009,47.563c14.98-14.862,29.989-34.528,29.989-47.563
	v-1.533C452.002,59.491,438.545,46.008,422.004,46.008z M139.994,220.919c-33.083,0-59.998-26.915-59.998-59.998
	s26.915-59.998,59.998-59.998s59.998,26.915,59.998,59.998S173.077,220.919,139.994,220.919z M139.994,140.922
	c-11.028,0-19.999,8.972-19.999,19.999c0,11.028,8.972,19.999,19.999,19.999c11.028,0,19.999-8.972,19.999-19.999
	C159.993,149.894,151.022,140.922,139.994,140.922z M139.994,366.75l-12.563-10.146c-1.281-1.034-31.716-25.729-62.51-61.065
	C21.842,246.11,0,201.369,0,162.559v-3.673C0,81.731,62.801,18.96,139.994,18.96s139.994,62.77,139.994,139.926v3.673
	c0,38.809-21.842,83.551-64.919,132.98c-30.795,35.336-61.229,60.032-62.51,61.065L139.994,366.75z M139.994,58.959
	c-55.138,0-99.996,44.827-99.996,99.928v3.673c0,28.461,19.044,65.357,55.076,106.701c16.929,19.425,33.916,35.52,44.985,45.441
	c36.342-32.427,99.931-99.989,99.931-152.142v-3.673C239.99,103.786,195.132,58.959,139.994,58.959z M492.001,327.997
	c-11.046,0-19.999,8.954-19.999,19.999s8.954,19.999,19.999,19.999S512,359.041,512,347.996S503.046,327.997,492.001,327.997z
	 M492.001,396.994c-11.046,0-19.999,8.954-19.999,19.999s8.954,19.999,19.999,19.999S512,428.038,512,416.993
	S503.046,396.994,492.001,396.994z M492.001,465.991c-11.046,0-19.999,8.954-19.999,19.999s8.954,19.999,19.999,19.999
	S512,497.036,512,485.99S503.046,465.991,492.001,465.991z M352.007,190.002c-11.046,0-19.999,8.954-19.999,19.999
	c0,11.046,8.954,19.999,19.999,19.999s19.999-8.954,19.999-19.999C372.006,198.956,363.052,190.002,352.007,190.002z
	 M422.004,327.997c-11.046,0-19.999,8.954-19.999,19.999s8.954,19.999,19.999,19.999s19.999-8.954,19.999-19.999
	S433.049,327.997,422.004,327.997z M422.004,190.002c-11.046,0-19.999,8.954-19.999,19.999c0,11.046,8.954,19.999,19.999,19.999
	s19.999-8.954,19.999-19.999C442.003,198.956,433.049,190.002,422.004,190.002z M352.007,327.997
	c-11.046,0-19.999,8.954-19.999,19.999s8.954,19.999,19.999,19.999s19.999-8.954,19.999-19.999S363.052,327.997,352.007,327.997z
	 M352.007,258.999c-11.046,0-19.999,8.954-19.999,19.999c0,11.046,8.954,19.999,19.999,19.999s19.999-8.954,19.999-19.999
	C372.006,267.953,363.052,258.999,352.007,258.999z M422.004,465.991c-11.046,0-19.999,8.954-19.999,19.999
	s8.954,19.999,19.999,19.999s19.999-8.954,19.999-19.999S433.049,465.991,422.004,465.991z M352.007,465.991
	c-11.046,0-19.999,8.954-19.999,19.999s8.954,19.999,19.999,19.999s19.999-8.954,19.999-19.999S363.052,465.991,352.007,465.991z
	 M282.009,465.991c-11.046,0-19.999,8.954-19.999,19.999s8.954,19.999,19.999,19.999s19.999-8.954,19.999-19.999
	S293.055,465.991,282.009,465.991z M212.012,465.991c-11.046,0-19.999,8.954-19.999,19.999s8.954,19.999,19.999,19.999
	c11.046,0,19.999-8.954,19.999-19.999S223.058,465.991,212.012,465.991z M142.015,465.991c-11.046,0-19.999,8.954-19.999,19.999
	s8.954,19.999,19.999,19.999c11.046,0,19.999-8.954,19.999-19.999S153.061,465.991,142.015,465.991z M142.015,396.994
	c-11.046,0-19.999,8.954-19.999,19.999s8.954,19.999,19.999,19.999c11.046,0,19.999-8.954,19.999-19.999
	S153.061,396.994,142.015,396.994z"/>
<g>
</g>
<g>
</g>
<g>
</g>
<g>
</g>
<g>
</g>
<g>
</g>
<g>
</g>
<g>
</g>
<g>
</g>
<g>
</g>
<g>
</g>
<g>
</g>
<g>
</g>
<g>
</g>
<g>
</g>
</svg>
